<svg width="17" height="16" viewBox="0 0 17 16" fill="none" xmlns="http://www.w3.org/2000/svg">
<path d="M6.69183 8.00008L12.2209 2.47195L12.221 2.47194C12.3461 2.34679 12.4164 2.17706 12.4164 2.00008C12.4164 1.82311 12.3461 1.65338 12.221 1.52823C12.0958 1.40309 11.9261 1.33279 11.7491 1.33279C11.5721 1.33279 11.4024 1.40309 11.2773 1.52823L5.27741 7.52808L6.69183 8.00008ZM6.69183 8.00008L12.2208 13.5281C12.2208 13.5281 12.2209 13.5281 12.2209 13.5282L12.2209 13.5282L6.69183 8.00008ZM12.0046 14.6167C12.0855 14.5832 12.1591 14.5339 12.221 14.4719L5.2774 8.47208L11.2771 14.4718L11.3951 14.3541L11.2773 14.4719L11.2772 14.4719C11.3391 14.5339 11.4126 14.5831 11.4936 14.6167C11.5746 14.6503 11.6614 14.6676 11.7491 14.6676C11.8368 14.6676 11.9236 14.6503 12.0046 14.6167ZM5.13246 8.25559C5.16604 8.33652 5.21524 8.41004 5.27726 8.47193L5.27726 7.52823C5.21524 7.59013 5.16604 7.66364 5.13246 7.74457C5.09885 7.82557 5.08155 7.91239 5.08155 8.00008C5.08155 8.08777 5.09885 8.1746 5.13246 8.25559Z" fill="#131313" stroke="#131313" stroke-width="0.333333"/>
</svg>
