<svg width="92" height="25" viewBox="0 0 92 25" fill="none" xmlns="http://www.w3.org/2000/svg">
<path d="M24.1162 21.4555C24.3197 21.4755 24.5173 21.5356 24.6976 21.6325C24.8779 21.7294 25.0374 21.8612 25.1668 22.0202C25.2963 22.1792 25.3933 22.3624 25.4521 22.5592C25.511 22.756 25.5306 22.9625 25.5098 23.1669C25.4272 23.5797 25.1899 23.9448 24.847 24.1867C24.5041 24.4286 24.0819 24.5288 23.6675 24.4666C23.4639 24.447 23.2661 24.3871 23.0856 24.2903C22.9052 24.1935 22.7456 24.0618 22.616 23.9026C22.4864 23.7435 22.3895 23.5602 22.3308 23.3633C22.2721 23.1663 22.2528 22.9597 22.2739 22.7552C22.3566 22.3424 22.5939 21.9774 22.9367 21.7355C23.2796 21.4936 23.7019 21.3933 24.1162 21.4555Z" fill="#E3001C"/>
<path d="M13.2217 21.4555C13.4252 21.4755 13.6228 21.5356 13.8031 21.6325C13.9834 21.7294 14.1428 21.8612 14.2723 22.0202C14.4018 22.1792 14.4988 22.3624 14.5576 22.5592C14.6165 22.756 14.6361 22.9625 14.6153 23.1669C14.5326 23.5797 14.2954 23.9448 13.9525 24.1867C13.6096 24.4286 13.1873 24.5288 12.773 24.4666C12.5693 24.447 12.3716 24.3871 12.1911 24.2903C12.0106 24.1935 11.851 24.0618 11.7215 23.9026C11.5919 23.7435 11.495 23.5602 11.4363 23.3633C11.3776 23.1663 11.3582 22.9597 11.3794 22.7552C11.462 22.3424 11.6993 21.9774 12.0422 21.7355C12.3851 21.4936 12.8074 21.3933 13.2217 21.4555Z" fill="#038688"/>
<path d="M0.484881 22.7552C0.567509 22.3424 0.804795 21.9774 1.14768 21.7355C1.49057 21.4936 1.91283 21.3933 2.32717 21.4555C2.53067 21.4755 2.72824 21.5356 2.90853 21.6325C3.08882 21.7294 3.24829 21.8612 3.37778 22.0202C3.50727 22.1792 3.60422 22.3624 3.66308 22.5592C3.72193 22.756 3.74153 22.9625 3.72074 23.1669C3.63811 23.5797 3.40082 23.9448 3.05794 24.1867C2.71505 24.4286 2.29279 24.5288 1.87845 24.4666C1.67481 24.447 1.47705 24.3871 1.29658 24.2903C1.11611 24.1935 0.956489 24.0618 0.826936 23.9026C0.697382 23.7435 0.600456 23.5602 0.541748 23.3633C0.483041 23.1663 0.463713 22.9597 0.484881 22.7552Z" fill="#FD7D2C"/>
<path d="M56.8037 21.4555C57.0072 21.4755 57.2048 21.5356 57.3851 21.6325C57.5654 21.7294 57.7249 21.8612 57.8543 22.0202C57.9838 22.1792 58.0808 22.3624 58.1396 22.5592C58.1985 22.756 58.2181 22.9625 58.1973 23.1669C58.1147 23.5797 57.8774 23.9448 57.5345 24.1867C57.1916 24.4286 56.7694 24.5288 56.355 24.4666C56.1514 24.447 55.9536 24.3871 55.7731 24.2903C55.5927 24.1935 55.4331 24.0618 55.3035 23.9026C55.1739 23.7435 55.077 23.5602 55.0183 23.3633C54.9596 23.1663 54.9403 22.9597 54.9614 22.7552C55.0441 22.3424 55.2814 21.9774 55.6242 21.7355C55.9671 21.4936 56.3894 21.3933 56.8037 21.4555Z" fill="#7A439D"/>
<path d="M45.9033 21.4555C46.1068 21.4755 46.3044 21.5356 46.4847 21.6325C46.665 21.7294 46.8245 21.8612 46.954 22.0202C47.0834 22.1792 47.1804 22.3624 47.2393 22.5592C47.2981 22.756 47.3177 22.9625 47.2969 23.1669C47.2143 23.5797 46.977 23.9448 46.6341 24.1867C46.2912 24.4286 45.869 24.5288 45.4546 24.4666C45.251 24.447 45.0532 24.3871 44.8728 24.2903C44.6923 24.1935 44.5327 24.0618 44.4031 23.9026C44.2736 23.7435 44.1766 23.5602 44.1179 23.3633C44.0592 23.1663 44.0399 22.9597 44.0611 22.7552C44.1437 22.3424 44.381 21.9774 44.7239 21.7355C45.0667 21.4936 45.489 21.3933 45.9033 21.4555Z" fill="#155FA0"/>
<path d="M33.1682 22.7552C33.2508 22.3424 33.4881 21.9774 33.831 21.7355C34.1739 21.4936 34.5962 21.3933 35.0105 21.4555C35.214 21.4755 35.4116 21.5356 35.5919 21.6325C35.7721 21.7294 35.9316 21.8612 36.0611 22.0202C36.1906 22.1792 36.2875 22.3624 36.3464 22.5592C36.4053 22.756 36.4248 22.9625 36.4041 23.1669C36.3214 23.5797 36.0841 23.9448 35.7413 24.1867C35.3984 24.4286 34.9761 24.5288 34.5618 24.4666C34.3583 24.4467 34.1607 24.3865 33.9804 24.2896C33.8001 24.1927 33.6406 24.0609 33.5112 23.9019C33.3817 23.7429 33.2847 23.5597 33.2259 23.3629C33.167 23.1661 33.1474 22.9596 33.1682 22.7552Z" fill="#F73D6A"/>
<path d="M90.0437 21.4555C90.2472 21.4755 90.4448 21.5356 90.6251 21.6325C90.8053 21.7294 90.9648 21.8612 91.0943 22.0202C91.2238 22.1792 91.3208 22.3624 91.3796 22.5592C91.4385 22.756 91.4581 22.9625 91.4373 23.1669C91.3546 23.5797 91.1174 23.9448 90.7745 24.1867C90.4316 24.4286 90.0093 24.5288 89.595 24.4666C89.3915 24.4467 89.1939 24.3865 89.0136 24.2896C88.8333 24.1927 88.6739 24.0609 88.5444 23.9019C88.4149 23.7429 88.3179 23.5597 88.2591 23.3629C88.2002 23.1661 88.1806 22.9596 88.2014 22.7552C88.284 22.3424 88.5213 21.9774 88.8642 21.7355C89.2071 21.4936 89.6294 21.3933 90.0437 21.4555Z" fill="#FF430B"/>
<path d="M78.5906 21.4555C78.7941 21.4755 78.9916 21.5356 79.1719 21.6325C79.3522 21.7294 79.5117 21.8612 79.6412 22.0202C79.7707 22.1792 79.8676 22.3624 79.9265 22.5592C79.9853 22.756 80.0049 22.9625 79.9841 23.1669C79.9015 23.5797 79.6642 23.9448 79.3213 24.1867C78.9785 24.4286 78.5562 24.5288 78.1418 24.4666C77.9383 24.4467 77.7408 24.3865 77.5605 24.2896C77.3802 24.1927 77.2207 24.0609 77.0912 23.9019C76.9617 23.7429 76.8648 23.5597 76.8059 23.3629C76.7471 23.1661 76.7275 22.9596 76.7483 22.7552C76.8309 22.3424 77.0682 21.9774 77.4111 21.7355C77.754 21.4936 78.1762 21.3933 78.5906 21.4555Z" fill="#F2ED04"/>
<path d="M65.8537 22.7552C65.9364 22.3424 66.1737 21.9774 66.5166 21.7355C66.8594 21.4936 67.2817 21.3933 67.696 21.4555C67.8995 21.4755 68.0971 21.5356 68.2774 21.6325C68.4577 21.7294 68.6172 21.8612 68.7466 22.0202C68.8761 22.1792 68.9731 22.3624 69.0319 22.5592C69.0908 22.756 69.1104 22.9625 69.0896 23.1669C69.007 23.5797 68.7697 23.9448 68.4268 24.1867C68.0839 24.4286 67.6617 24.5288 67.2473 24.4666C67.0438 24.4467 66.8463 24.3865 66.666 24.2896C66.4857 24.1927 66.3262 24.0609 66.1967 23.9019C66.0672 23.7429 65.9703 23.5597 65.9114 23.3629C65.8526 23.1661 65.833 22.9596 65.8537 22.7552Z" fill="#9FDADA"/>
<path d="M7.51446 16.644L0.332031 0.235352H2.84045L9.44037 15.3611H8.00221L14.6467 0.235352H16.9795L9.8222 16.644H7.51446Z" fill="#0C080C"/>
<path d="M19.0547 16.644V0.235352H21.3847V16.6384L19.0547 16.644Z" fill="#0C080C"/>
<path d="M29.5243 16.644V2.28013H23.9277V0.235352H37.4258V2.27453H31.8265V16.6384L29.5243 16.644Z" fill="#0C080C"/>
<path d="M36.6816 16.644L44.0731 0.235352H46.3808L53.7946 16.6384H51.3364L44.7364 1.54905H45.6701L39.073 16.644H36.6816ZM39.8283 12.5432L40.4582 10.6693H49.6557L50.333 12.5432H39.8283Z" fill="#0C080C"/>
<path d="M56.2188 16.644V0.235352H58.1307L65.4525 12.6329H64.4352L71.6539 0.235352H73.5658L73.5881 16.6384H71.3584L71.3361 3.7759H71.8713L65.4358 14.6468H64.3655L57.8827 3.7759H58.4652V16.6384L56.2188 16.644Z" fill="#B9B7B5"/>
<path d="M80.8172 14.6048H90.3297V16.644H78.4844V0.235352H90.0036V2.27453H80.806L80.8172 14.6048ZM80.6054 7.32204H89.0002V9.3136H80.5998L80.6054 7.32204Z" fill="#B9B7B5"/>
</svg>
